<?xml version="1.0" encoding="UTF-8" standalone="no"?>
<!-- Created with Inkscape (http://www.inkscape.org/) -->

<svg
   width="73.836426mm"
   height="61.043026mm"
   viewBox="0 0 73.836426 61.043026"
   version="1.1"
   id="svg1"
   inkscape:version="1.4.4 (1:1.4.4+202605061432+dcaf3e7d9e)"
   sodipodi:docname="TabPic.svg"
   xmlns:inkscape="http://www.inkscape.org/namespaces/inkscape"
   xmlns:sodipodi="http://sodipodi.sourceforge.net/DTD/sodipodi-0.dtd"
   xmlns:xlink="http://www.w3.org/1999/xlink"
   xmlns="http://www.w3.org/2000/svg"
   xmlns:svg="http://www.w3.org/2000/svg">
  <sodipodi:namedview
     id="namedview1"
     pagecolor="#ffffff"
     bordercolor="#000000"
     borderopacity="0.25"
     inkscape:showpageshadow="2"
     inkscape:pageopacity="0.0"
     inkscape:pagecheckerboard="0"
     inkscape:deskcolor="#d1d1d1"
     inkscape:document-units="mm"
     inkscape:zoom="0.64312769"
     inkscape:cx="201.3597"
     inkscape:cy="118.94994"
     inkscape:window-width="2256"
     inkscape:window-height="1504"
     inkscape:window-x="0"
     inkscape:window-y="-38"
     inkscape:window-maximized="1"
     inkscape:current-layer="layer1" />
  <defs
     id="defs1">
    <linearGradient
       id="linearGradient20"
       inkscape:collect="always">
      <stop
         style="stop-color:#b300ff;stop-opacity:1;"
         offset="0.39074045"
         id="stop20" />
      <stop
         style="stop-color:#000000;stop-opacity:1;"
         offset="1"
         id="stop21" />
    </linearGradient>
    <linearGradient
       inkscape:collect="always"
       xlink:href="#linearGradient20"
       id="linearGradient21"
       x1="90.834175"
       y1="162.1115"
       x2="90.834175"
       y2="88.27507"
       gradientUnits="userSpaceOnUse"
       gradientTransform="translate(-11.591317,21.443938)" />
  </defs>
  <g
     inkscape:label="Layer 1"
     inkscape:groupmode="layer"
     id="layer1"
     transform="translate(-53.915992,-112.05878)">
    <path
       id="path2-1-3"
       style="fill:url(#linearGradient21);fill-opacity:1;stroke:none;stroke-width:0.299999"
       d="m 83.356919,116.42912 a 29.067148,29.067148 0 0 1 40.025611,9.36845 29.067148,29.067148 0 0 1 -9.36966,40.02534 29.067148,29.067148 0 0 1 -40.024846,-9.36892 29.067148,29.067148 0 0 1 -0.510202,-0.85499 20.880012,20.880012 0 0 0 23.804898,1.23986 20.880012,20.880012 0 0 0 6.73001,-28.75133 20.880012,20.880012 0 0 0 -24.619824,-8.70418 29.067148,29.067148 0 0 1 3.96429,-2.95442 z m -28.231171,4.82712 a 16.749006,16.749006 0 0 1 22.87961,-6.13096 16.749006,16.749006 0 0 1 6.13025,22.87981 16.749006,16.749006 0 0 1 -22.879351,6.1305 16.749006,16.749006 0 0 1 -0.491761,-0.29547 12.031433,12.031433 0 0 0 12.428867,-5.84673 12.031433,12.031433 0 0 0 -4.403765,-16.43507 12.031433,12.031433 0 0 0 -14.873606,2.27698 16.749006,16.749006 0 0 1 1.209846,-2.57922 z m 40.546472,29.34437 a 16.749006,16.749006 0 0 0 -21.482601,-9.97813 16.749006,16.749006 0 0 0 -9.977464,21.48291 16.749006,16.749006 0 0 0 21.482427,9.97764 16.749006,16.749006 0 0 0 0.535352,-0.20621 12.031433,12.031433 0 0 1 -11.236813,-7.89907 12.031433,12.031433 0 0 1 7.167306,-15.43161 12.031433,12.031433 0 0 1 14.259573,4.80347 16.749006,16.749006 0 0 0 -0.74777,-2.74898 z"
       inkscape:export-filename="TabPic_Close.svg"
       inkscape:export-xdpi="96"
       inkscape:export-ydpi="96" />
  </g>
</svg>
